HIERARCHY
ROOT Hips
{
    OFFSET 0.000000 0.000000 0.000000
    CHANNELS 6 Xposition Yposition Zposition Zrotation Xrotation Yrotation
    JOINT Spine
    {
        OFFSET -0.000000 7.236184 0.000000
        CHANNELS 3 Zrotation Xrotation Yrotation
        JOINT Spine1
        {
            OFFSET -0.000000 20.420147 0.000000
            CHANNELS 3 Zrotation Xrotation Yrotation
            JOINT Neck
            {
                OFFSET -0.000000 20.336288 1.848754
                CHANNELS 3 Zrotation Xrotation Yrotation
                JOINT Head
                {
                    OFFSET -0.000000 12.354461 -1.764923
                    CHANNELS 3 Zrotation Xrotation Yrotation
                    End Site
                    {
                        OFFSET -0.000000 22.061537 0.000000
                    }
                }
            }
            JOINT LeftShoulder
            {
                OFFSET 3.573296 18.396038 -0.314103
                CHANNELS 3 Zrotation Xrotation Yrotation
                JOINT LeftArm
                {
                    OFFSET 10.880760 0.000000 0.000000
                    CHANNELS 3 Zrotation Xrotation Yrotation
                    JOINT LeftForeArm
                    {
                        OFFSET 27.185530 0.000000 0.000000
                        CHANNELS 3 Zrotation Xrotation Yrotation
                        JOINT LeftHand
                        {
                            OFFSET 27.825975 0.000000 0.000000
                            CHANNELS 3 Zrotation Xrotation Yrotation
                            End Site
                            {
                                OFFSET 13.236923 0.000000 0.000000
                            }
                        }
                    }
                }
            }
            JOINT RightShoulder
            {
                OFFSET -3.474926 18.396038 -0.314103
                CHANNELS 3 Zrotation Xrotation Yrotation
                JOINT RightArm
                {
                    OFFSET -10.880760 0.000000 0.000000
                    CHANNELS 3 Zrotation Xrotation Yrotation
                    JOINT RightForeArm
                    {
                        OFFSET -27.185530 0.000000 0.000000
                        CHANNELS 3 Zrotation Xrotation Yrotation
                        JOINT RightHand
                        {
                            OFFSET -27.825975 0.000000 0.000000
                            CHANNELS 3 Zrotation Xrotation Yrotation
                            End Site
                            {
                                OFFSET -13.236923 0.000000 0.000000
                            }
                        }
                    }
                }
            }
        }
    }
    JOINT LeftUpLeg
    {
        OFFSET 8.824615 0.000000 0.000000
        CHANNELS 3 Zrotation Xrotation Yrotation
        JOINT LeftLeg
        {
            OFFSET -0.000000 -35.111282 0.000000
            CHANNELS 3 Zrotation Xrotation Yrotation
            JOINT LeftFoot
            {
                OFFSET -0.000000 -42.324711 0.000000
                CHANNELS 3 Zrotation Xrotation Yrotation
                JOINT LeftToeBase
                {
                    OFFSET -0.000000 -5.735999 13.236923
                    CHANNELS 3 Zrotation Xrotation Yrotation
                    End Site
                    {
                        OFFSET -0.000000 0.000000 3.529846
                    }
                }
            }
        }
    }
    JOINT RightUpLeg
    {
        OFFSET -8.824615 0.000000 0.000000
        CHANNELS 3 Zrotation Xrotation Yrotation
        JOINT RightLeg
        {
            OFFSET -0.000000 -35.111282 0.000000
            CHANNELS 3 Zrotation Xrotation Yrotation
            JOINT RightFoot
            {
                OFFSET -0.000000 -42.324711 0.000000
                CHANNELS 3 Zrotation Xrotation Yrotation
                JOINT RightToeBase
                {
                    OFFSET -0.000000 -5.735999 13.236923
                    CHANNELS 3 Zrotation Xrotation Yrotation
                    End Site
                    {
                        OFFSET -0.000000 0.000000 3.529846
                    }
                }
            }
        }
    }
}
MOTION
Frames:    9
Frame Time:    0.008333
-11.343656    78.827805    110.088814    4.258096    -16.585491    179.714005    -1.600561    -0.937749    0.627545    -0.619851    1.464348    0.648671    1.407780    -4.381324    -7.865583    14.520007    -26.154926    -3.161084    -1.282229    13.433456    -8.252993    -44.423916    36.000420    -43.170864    23.577606    -13.151539    -43.358433    22.363873    -4.731020    -5.044260    6.172189    15.376653    -1.304938    44.760281    32.171623    41.995186    -32.712151    -24.051310    47.009644    -34.483540    -10.813368    2.560547    4.738772    -42.615208    0.965922    1.637374    43.178490    4.700641    -5.833849    -14.399329    -15.604750    0.874874    -2.078771    -0.973469    -2.006478    -36.710606    5.634984    0.166535    33.987404    7.255976    1.183055    -9.254879    -14.699345    -2.146874    -3.704049    2.334183    
-11.233040    78.767685    110.129311    4.166453    -16.579365    179.602356    -1.639667    -0.964398    0.652446    -0.419978    1.688255    0.672485    1.458220    -4.206362    -7.630632    13.684864    -26.917654    -3.140504    -1.200300    13.416717    -8.349439    -44.616570    35.578976    -42.900646    23.571629    -13.077032    -42.716835    22.363586    -4.802543    -4.994030    6.207238    15.509992    -1.139509    44.392067    32.248825    42.560375    -32.718502    -23.864231    45.901604    -34.864025    -11.048470    2.708433    4.831905    -42.706978    1.052040    1.584029    43.333668    4.820451    -5.907338    -14.440192    -15.654881    0.878696    -2.085208    -0.977733    -1.962213    -36.914536    5.767173    0.243163    34.294552    7.232144    1.121364    -9.373605    -14.734756    -2.128186    -3.712404    2.313893    
-11.120064    78.721542    110.153488    4.066586    -16.560162    179.492401    -1.671861    -1.007275    0.679030    -0.231554    1.915697    0.697653    1.519110    -3.986173    -7.388206    12.793801    -27.702490    -3.142555    -1.104670    13.384833    -8.389131    -44.883186    35.032108    -42.443142    23.516354    -12.948513    -42.106785    22.351181    -4.827629    -4.932714    6.232336    15.631211    -1.031259    44.136078    32.178886    42.901169    -32.659035    -23.632435    44.960094    -35.145626    -11.205523    2.863260    4.918721    -42.742702    1.135748    1.523431    43.435322    4.935933    -5.982794    -14.472322    -15.698608    0.882801    -2.089174    -0.982309    -1.935075    -37.072369    5.864771    0.315182    34.560806    7.226777    1.064006    -9.479076    -14.759719    -2.110619    -3.719064    2.294817    
-11.004317    78.689919    110.161278    3.958939    -16.528856    179.386917    -1.695897    -1.066008    0.704790    -0.054472    2.144128    0.721568    1.589080    -3.720215    -7.137309    11.845722    -28.507896    -3.167925    -0.997886    13.339023    -8.368441    -45.222645    34.353748    -41.800098    23.410406    -12.765860    -41.531982    22.329208    -4.805630    -4.862467    6.250091    15.740247    -0.984114    44.004044    31.960449    43.013710    -32.541893    -23.361200    44.193352    -35.328678    -11.282569    3.022086    4.997795    -42.723377    1.215096    1.455850    43.482628    5.044829    -6.060281    -14.494799    -15.735209    0.887381    -2.090753    -0.987408    -1.925512    -37.182755    5.922431    0.378110    34.783146    7.243753    1.010810    -9.572046    -14.774798    -2.094200    -3.723098    2.276979    
-10.886409    78.673492    110.152863    3.845240    -16.487183    179.289322    -1.710648    -1.139544    0.726809    0.110295    2.368164    0.741561    1.665943    -3.409310    -6.879569    10.848971    -29.325420    -3.216901    -0.883678    13.280860    -8.285409    -45.624294    33.546665    -40.983894    23.255356    -12.532417    -40.999191    22.301222    -4.738001    -4.786392    6.261978    15.835774    -1.000637    44.001385    31.595076    42.900372    -32.375610    -23.058567    43.609974    -35.414398    -11.280156    3.180043    5.067652    -42.651302    1.288013    1.382551    43.474808    5.143879    -6.139169    -14.506529    -15.763919    0.892790    -2.090490    -0.993426    -1.933148    -37.243992    5.936294    0.427251    34.956326    7.285949    0.962490    -9.652076    -14.780703    -2.078686    -3.723824    2.260114    
-10.765888    78.672531    110.128616    3.726408    -16.436613    179.201935    -1.715605    -1.226626    0.742687    0.263855    2.583394    0.755163    1.747521    -3.051412    -6.614875    9.804836    -30.153316    -3.289774    -0.763995    13.212437    -8.139049    -46.074757    32.609596    -40.006050    23.053709    -12.251617    -40.508190    22.269794    -4.627499    -4.707112    6.269041    15.917397    -1.081383    44.124794    31.081650    42.569813    -32.166058    -22.729656    43.207500    -35.407856    -11.201713    3.333205    5.127818    -42.528740    1.353296    1.304383    43.411884    5.231009    -6.219387    -14.507066    -15.784554    0.899098    -2.087876    -1.000439    -1.956827    -37.255665    5.904863    0.459137    35.077595    7.355091    0.919140    -9.719798    -14.778403    -2.063847    -3.720805    2.243970    
-10.642667    78.687195    110.089073    3.603755    -16.378784    179.126816    -1.710831    -1.325561    0.750398    0.407542    2.784538    0.760277    1.830889    -2.645983    -6.344636    8.718381    -30.986168    -3.386963    -0.640899    13.135284    -7.929541    -46.554543    31.547632    -38.883755    22.810040    -11.928699    -40.058769    22.237265    -4.478262    -4.627790    6.270997    15.983799    -1.225590    44.364216    30.420801    42.035622    -31.918018    -22.380173    42.981564    -35.314949    -11.052429    3.477413    5.178042    -42.358433    1.410343    1.222968    43.294075    5.303644    -6.301054    -14.495894    -15.797152    0.906352    -2.082444    -1.008501    -1.994854    -37.217484    5.828906    0.471485    35.143890    7.450784    0.880967    -9.775516    -14.768692    -2.049404    -3.713588    2.228244    
-10.515423    78.717712    110.034393    3.477355    -16.314703    179.064865    -1.696651    -1.435603    0.748173    0.544378    2.968550    0.755342    1.912705    -2.189090    -6.068373    7.586208    -31.825861    -3.509532    -0.514645    13.049943    -7.655678    -47.044518    30.358646    -37.625175    22.527906    -11.566710    -39.644875    22.204456    -4.293808    -4.550646    6.266323    16.033682    -1.432521    44.705975    29.606136    41.308868    -31.632074    -22.011242    42.924095    -35.141464    -10.836280    3.609306    5.218800    -42.141335    1.459252    1.139144    43.120598    5.360561    -6.385186    -14.472632    -15.802160    0.914714    -2.074684    -1.017791    -2.045561    -37.128990    5.710484    0.463777    35.153000    7.571039    0.848185    -9.819948    -14.751651    -2.035110    -3.701764    2.212665    
-10.386005    78.763458    109.966110    3.350297    -16.246880    179.017639    -1.674243    -1.553581    0.735198    0.674541    3.128494    0.739467    1.986855    -1.687894    -5.793045    6.434387    -32.653645    -3.655119    -0.387680    12.958490    -7.324308    -47.512081    29.073503    -36.269970    22.218653    -11.178321    -39.270130    22.171946    -4.082853    -4.479589    6.251634    16.064268    -1.694657    45.123924    28.651295    40.420341    -31.313797    -21.631670    43.027134    -34.897217    -10.562773    3.723721    5.249996    -41.883415    1.499588    1.055987    42.894779    5.399523    -6.470688    -14.437376    -15.799988    0.923913    -2.064022    -1.028005    -2.105726    -36.992184    5.556642    0.437084    35.102921    7.709409    0.821972    -9.852757    -14.727763    -2.021178    -3.685589    2.197466    
